<?xml version="1.0" encoding="utf-8"?>
<!-- Generator: Adobe Illustrator 22.0.1, SVG Export Plug-In . SVG Version: 6.00 Build 0)  -->
<svg version="1.1" id="Layer_1" xmlns="http://www.w3.org/2000/svg" xmlns:xlink="http://www.w3.org/1999/xlink" x="0px" y="0px"
	 viewBox="0 0 108.3 125" style="enable-background:new 0 0 108.3 125;" xml:space="preserve">
<style type="text/css">
	.st0{fill:#F8F8F8;}
	.st1{fill:#FFEEAA;}
	.st2{opacity:0.15;}
	.st3{fill:#242021;}
	.st4{fill:#231F20;}
</style>
<title>lorina</title>
<g>
	<polygon class="st0" points="0,31.2 54.2,0 108.3,31.2 108.3,93 54.2,125 0,93 	"/>
</g>
<g id="Mask-2">
	<path id="path-2-2" class="st1" d="M7,36L53.8,9l46.8,27v53.3L53.8,117L7,89.3V36z"/>
</g>
<g>
	<g id="Path-295" class="st2">
		<path d="M101.8,36L54,65.3l47.3,24.2L101.8,36z"/>
		<path d="M6,36l47.8,29.3L6.6,89.6L6,36z"/>
	</g>
</g>
<g id="g5284" transform="translate(23.376355,-1.5715195)">
	<path id="path754" class="st3" d="M21.8,76.1c-0.3-0.2-0.5-0.6-1.1-1.6c-0.4-0.8-5.2-9.8-6-11.3
		l-0.3-0.7l0-0.6c0.1-0.9,0.2-1.2,0.9-1.9c0.4-0.4,0.6-0.5,0.9-0.7c0.5-0.3,2.4-0.9,5.1-1.8c3.5-1.2,4.7-1.5,5.1-1.5
		c0.3,0,0.4,0.2,0.8,0.8c0.8,1.4,3.6,6.9,5.2,10.1c1.2,2.5,1.2,2.4,0.6,2.9c-0.4,0.3-0.5,0.4-0.5,0.5c0,0.1,0.2,0.6,0.4,1
		c0.2,0.6,0.3,0.9,0.3,1c0,0.2,0,0.2-0.8,0.5c-1,0.4-5.7,2.1-7.6,2.7c-1.5,0.5-1.5,0.5-2.1,0.5C22,76.2,21.9,76.2,21.8,76.1z"/>
	
		<path id="path5276" class="st4" d="
		M30.2,95.4l-1-7.7c-3.2-0.5-6.3-1.4-9.3-2.6c0.9-2.4,1.7-4.7,2.4-7c0.7-2.2,2-6.9,2.5-8.9c0.3-1-3.7-2-6.7,0.6
		c-0.1,0.1-0.4,0.1-0.8,0c-0.2-0.1-0.1-0.4-0.5-0.8c-0.2-0.3-0.6-0.9-1.1-1.1c-0.3-0.1-0.6-0.5-0.8-0.7c-0.9-1,0.4-1.8,1.3-2.5
		c0,0,8.9,2.8,9.2,1.3c1-6,2-14.4,2-14.4c0.8,0.3,1.7,0.6,2.6,0.7c-0.2-1.2,0.5-3.7-0.3-4.6c-1.8-1.9-5.3-1.8-5.6-8.3l-0.7-0.1
		c-1.2-0.5-1.1-2.3,0.2-2.5l0,0l0.8,0.1c0-2.3,0.2-6.4,1.9-8.6c1.3,3.2-2.2,4.2-2.2,4.2l-2.6-0.5c-1.5-8.2,12.4-9.7,18.5-8.9
		c3.4,0.3,6,3,6.1,6.4c3.4,0.8-0.8,37.3-0.8,37.3c-2.4,0.7,0.3,0.8-2.2-0.6c-0.5,0-2.1-19.3-2.6-19.4c-1.2,0.8-2.6,1.2-4,1.2
		c-0.5,0-1.1,1.3-1.1,3.7c0.6-0.2,0,0,1.6-0.9C43.2,63.3,39.4,75.8,43,86c-1.8,1.1-3.8,1.8-5.9,2l0.2,13c0,0,0.7,2.2-1.5,1.8
		c-2.6,2.3-6.3,3.2-9.7,2.2v-1.6c2.1-1.8,7-2,8.4-3.7L33.1,88h-0.1l0.1,8.6c0,0,0.7,2.2-1.5,1.8c-2.6,2.3-6.3,3.2-9.7,2.2V99
		C23.9,97.2,28.9,97,30.2,95.4L30.2,95.4z"/>
</g>
</svg>
